<?xml version="1.0" standalone="no"?>
<!DOCTYPE svg PUBLIC "-//W3C//DTD SVG 20010904//EN"
 "http://www.w3.org/TR/2001/REC-SVG-20010904/DTD/svg10.dtd">
<svg version="1.0" xmlns="http://www.w3.org/2000/svg"
 width="736.000000pt" height="736.000000pt" viewBox="0 0 736.000000 736.000000"
 preserveAspectRatio="xMidYMid meet">

<g transform="translate(0.000000,736.000000) scale(0.100000,-0.100000)"
fill="#000000" stroke="none">
<path d="M0 3680 l0 -3680 3680 0 3680 0 0 3680 0 3680 -3680 0 -3680 0 0
-3680z m4230 1240 c0 -13 -730 -2562 -737 -2572 -2 -5 -85 -8 -184 -8 -137 0
-179 3 -179 13 0 6 41 154 91 327 49 173 214 747 365 1274 151 528 277 963
280 968 8 12 364 10 364 -2z m-1300 -366 c0 -3 -164 -211 -365 -461 -325 -405
-364 -458 -353 -474 7 -10 170 -214 363 -453 192 -240 351 -440 353 -446 2 -6
-60 -10 -176 -10 l-180 0 -159 198 c-398 493 -576 718 -576 728 0 9 569 728
691 872 l44 52 179 0 c99 0 179 -3 179 -6z m1953 -109 c237 -295 634 -791 639
-800 8 -13 5 -16 -410 -533 l-324 -402 -180 0 c-126 0 -179 3 -176 11 2 6 161
207 353 446 193 239 356 442 363 452 11 16 -27 68 -353 473 -201 251 -365 458
-365 462 0 4 82 5 182 4 l182 -3 89 -110z"/>
</g>
</svg>
